<svg width="201" height="194" viewBox="0 0 201 194" fill="none" xmlns="http://www.w3.org/2000/svg">
<g clip-path="url(#clip0_1_2)">
<rect width="200.316" height="192.758" transform="translate(0.418121 0.518402) rotate(-0.0791439)" fill="white"/>
<rect x="0.415344" y="-1.4816" width="200" height="200" transform="rotate(-0.0791439 0.415344 -1.4816)" fill="#0157FF"/>
<path d="M58.2319 164.148L58.0453 29.0697L98.2162 29.0142C103.783 29.0683 109.226 29.803 114.547 31.2182C119.868 32.5715 124.603 34.6988 128.751 37.5999C132.898 40.5011 136.212 44.2075 138.693 48.719C141.173 53.2306 142.386 58.6407 142.333 64.9494C142.276 68.4748 141.693 71.6918 140.584 74.6002C139.536 77.5086 138.087 80.1082 136.234 82.3992C134.32 84.7521 132.189 86.7342 129.841 88.3455C127.555 89.9568 124.774 91.4759 121.498 92.903L121.498 93.1813C124.901 93.9806 128.181 95.4296 131.338 97.5281C134.495 99.6266 137.096 101.942 139.141 104.475C141.309 107.256 142.984 110.377 144.163 113.838C145.405 117.3 146.029 121.041 146.034 125.061C146.105 131.37 144.907 136.938 142.439 141.766C139.972 146.593 136.669 150.618 132.529 153.84C128.39 157.124 123.6 159.635 118.16 161.374C112.781 163.114 107.216 164.018 101.464 164.088L58.2319 164.148ZM75.4005 100.945L75.4676 149.558L101.908 149.522C105.495 149.455 108.896 148.863 112.111 147.745C115.325 146.566 118.168 144.954 120.639 142.909C123.11 140.865 125.055 138.357 126.473 135.386C127.954 132.416 128.691 129.044 128.686 125.271C128.743 121.436 128.089 118.035 126.724 115.069C125.421 112.102 123.593 109.568 121.24 107.469C118.887 105.431 116.132 103.858 112.976 102.749C109.82 101.64 106.418 101.026 102.769 100.907L75.4005 100.945ZM75.3807 86.6581L99.3163 86.625C102.532 86.5587 105.686 86.0596 108.777 85.1276C111.868 84.1337 114.618 82.7074 117.028 80.8486C119.438 79.0516 121.383 76.8224 122.864 74.1608C124.344 71.4993 125.082 68.4058 125.077 64.8804C125.072 61.1076 124.325 57.8925 122.837 55.2351C121.411 52.5775 119.491 50.3845 117.076 48.6561C114.6 46.9896 111.753 45.7566 108.536 44.957C105.381 44.1573 102.133 43.7288 98.7931 43.6716L75.3214 43.704L75.3807 86.6581Z" fill="white"/>
</g>
<defs>
<clipPath id="clip0_1_2">
<rect width="200.316" height="192.758" fill="white" transform="translate(0.418121 0.518402) rotate(-0.0791439)"/>
</clipPath>
</defs>
</svg>
