<svg width="846" height="314" viewBox="0 0 846 314" fill="none" xmlns="http://www.w3.org/2000/svg">
<g clip-path="url(#clip0_54_2)">
<path d="M-1.25 98.75C4.08333 98.9167 8.75 99 12.75 99C16.75 98.8333 20 98.75 22.5 98.75H29.75C31.5833 98.5833 33.8333 98.5 36.5 98.5C38.8333 98.5 41.6667 98.5 45 98.5C48.3333 98.5 52.1667 98.5833 56.5 98.75C57.8333 103.417 59.3333 108 61 112.5C62.8333 116.833 64.4167 120.75 65.75 124.25C67.4167 128.417 69.0833 132.333 70.75 136C72.4167 139.667 74.4167 144.083 76.75 149.25C78.75 153.583 81.1667 158.917 84 165.25C86.8333 171.417 90.1667 178.5 94 186.5C95.8333 181.333 97.5 176.583 99 172.25C100.667 167.917 102.083 164.167 103.25 161C104.583 157.333 105.667 154 106.5 151C107.333 148 108.25 144.333 109.25 140C110.083 136.333 111 131.917 112 126.75C113.167 121.583 114.333 115.583 115.5 108.75C120.333 108.75 124.667 108.75 128.5 108.75C132.333 108.75 135.667 108.667 138.5 108.5C141.667 108.5 144.5 108.417 147 108.25C149.667 108.25 153.25 108.083 157.75 107.75C161.583 107.417 166.667 107.167 173 107C179.5 106.667 187.5 106.25 197 105.75C193.5 108.25 190.667 110.75 188.5 113.25C186.5 115.583 184.917 117.667 183.75 119.5C182.417 121.667 181.583 123.75 181.25 125.75C180.917 127.417 180.583 131.25 180.25 137.25C180.083 143.25 179.833 150.417 179.5 158.75C179.333 166.917 179.167 175.667 179 185C179 194.333 179.083 203.167 179.25 211.5C179.417 219.833 179.667 227.083 180 233.25C180.5 239.25 181.167 243.083 182 244.75C183.167 246.75 184.75 249.083 186.75 251.75C188.583 254.083 190.917 256.75 193.75 259.75C196.75 262.75 200.667 266.083 205.5 269.75C197.833 270.083 191.417 270.333 186.25 270.5C181.25 270.667 177.083 270.833 173.75 271C169.917 271.167 166.833 271.25 164.5 271.25C162 271.25 158.583 271.333 154.25 271.5C150.417 271.667 145.333 271.917 139 272.25C132.667 272.417 124.5 272.75 114.5 273.25C116.833 270.583 119 267.917 121 265.25C123 262.583 124.667 260.167 126 258C127.667 255.5 129.083 253.083 130.25 250.75C131.417 247.583 132.333 241.833 133 233.5C133.667 226.333 134.167 216.083 134.5 202.75C134.833 189.25 134.833 171.167 134.5 148.5C131.333 153.667 128.5 158.833 126 164C123.667 169 121.583 173.583 119.75 177.75C117.75 182.583 115.917 187.25 114.25 191.75C112.583 196.417 110.833 201.583 109 207.25C107.333 212.083 105.333 217.833 103 224.5C100.833 231.167 98.3333 238.5 95.5 246.5L86 247C84.6667 240.333 83.3333 234.333 82 229C80.6667 223.5 79.3333 218.833 78 215C76.5 210.5 75 206.5 73.5 203C71.8333 199.5 70 195.583 68 191.25C66.1667 187.583 63.9167 183.25 61.25 178.25C58.75 173.25 55.8333 167.667 52.5 161.5C50.8333 178.5 49.8333 192.333 49.5 203C49.1667 213.5 49.1667 221.667 49.5 227.5C49.8333 234.5 50.3333 239.583 51 242.75C52 245.583 53.5833 248.75 55.75 252.25C57.5833 255.25 60.0833 258.833 63.25 263C66.5833 267 70.8333 271.5 76 276.5C72.3333 276.5 68.5 276.5 64.5 276.5C60.5 276.5 56.8333 276.583 53.5 276.75C49.5 276.917 45.5833 277 41.75 277C37.75 277.167 33.0833 277.417 27.75 277.75C23.0833 278.083 17.5 278.417 11 278.75C4.5 279.083 -3 279.667 -11.5 280.5C-7.83333 278.167 -4.83333 275.917 -2.5 273.75C-0.166667 271.417 1.66667 269.333 3 267.5C4.66667 265.333 5.91667 263.167 6.75 261C7.25 259.667 7.66667 256.75 8 252.25C8.5 247.75 8.91667 242.25 9.25 235.75C9.75 229.25 10.0833 222 10.25 214C10.5833 206 10.8333 197.917 11 189.75C11.3333 181.417 11.5833 173.333 11.75 165.5C11.9167 157.5 12 150.333 12 144C12.1667 137.5 12.25 132.083 12.25 127.75C12.25 123.417 12.25 120.667 12.25 119.5C11.75 117 11 114.5 10 112C9.16667 109.833 7.83333 107.583 6 105.25C4.16667 102.917 1.75 100.75 -1.25 98.75ZM204.25 105.75C209.917 106.417 214.667 106.917 218.5 107.25C222.5 107.417 225.75 107.667 228.25 108C231.25 108.333 233.583 108.5 235.25 108.5C237.083 108.667 239.833 108.583 243.5 108.25C246.667 107.917 250.917 107.5 256.25 107C261.75 106.5 268.75 105.75 277.25 104.75C273.417 108.083 270.333 111.333 268 114.5C265.833 117.5 264.167 120.167 263 122.5C261.5 125.333 260.583 128 260.25 130.5C259.583 134.5 259 140 258.5 147C258.167 153.833 257.833 161.333 257.5 169.5C257.167 177.667 257 186.083 257 194.75C257 203.417 257.083 211.667 257.25 219.5C257.583 227.167 258.083 234 258.75 240C259.583 246 260.583 250.333 261.75 253C263.417 256 265.167 259 267 262C268.667 264.5 270.667 267.083 273 269.75C275.333 272.417 278 274.583 281 276.25C271.167 275.75 263.333 275.5 257.5 275.5H248.5C245.833 275.5 242.417 275.667 238.25 276C234.75 276.333 230.333 276.667 225 277C219.667 277.333 213.25 277.833 205.75 278.5C209.583 274.333 212.583 270.333 214.75 266.5C216.917 262.667 218.667 259.333 220 256.5C221.5 253.167 222.5 250 223 247C223.667 242.667 224.167 237.333 224.5 231C225 224.5 225.333 217.583 225.5 210.25C225.667 202.75 225.667 195.167 225.5 187.5C225.5 179.667 225.333 172.167 225 165C224.667 157.833 224.167 151.333 223.5 145.5C223 139.667 222.333 135 221.5 131.5C221 129.333 220 126.917 218.5 124.25C217.167 121.917 215.333 119.25 213 116.25C210.833 113.083 207.917 109.583 204.25 105.75ZM277 99.75C282.833 100.583 287.917 101.25 292.25 101.75C296.583 102.25 300.167 102.667 303 103C306.333 103.333 309.167 103.583 311.5 103.75C314.167 104.083 317.417 103.917 321.25 103.25C325.25 102.583 329.5 101.917 334 101.25C338.5 100.417 343.167 99.75 348 99.25C352.833 98.75 357.5 98.75 362 99.25C365 99.5833 368.833 100.25 373.5 101.25C378.167 102.25 383.083 103.833 388.25 106C393.583 108.167 398.917 111 404.25 114.5C409.583 118 414.417 122.417 418.75 127.75C423.083 133.083 426.667 139.417 429.5 146.75C432.333 154.083 433.917 162.667 434.25 172.5C434.75 187.167 433.417 200.5 430.25 212.5C427.083 224.5 422.167 234.75 415.5 243.25C409 251.75 400.75 258.417 390.75 263.25C380.75 268.083 369.083 270.75 355.75 271.25C345.583 272.083 335.583 272.833 325.75 273.5C321.583 273.833 317.167 274.083 312.5 274.25C308 274.417 303.5 274.583 299 274.75C294.5 274.75 290.167 274.667 286 274.5C281.833 274.333 278 274.083 274.5 273.75C278.333 271.917 281.417 270.083 283.75 268.25C286.25 266.417 288.167 264.833 289.5 263.5C291 261.833 292.083 260.333 292.75 259C293.083 257.167 293.583 253.583 294.25 248.25C294.75 243.75 295.417 237.333 296.25 229C297.083 220.667 298.083 209.333 299.25 195L300.75 177.25C301.583 166.25 301.917 157.25 301.75 150.25C301.75 143.25 301.583 137.75 301.25 133.75C300.75 129.083 300.083 125.667 299.25 123.5C298.583 121.667 297.333 119.5 295.5 117C293.833 115 291.5 112.583 288.5 109.75C285.667 106.75 281.833 103.417 277 99.75ZM329.75 191.75C330.083 206.583 330.833 218 332 226C333.333 233.833 334.75 239.667 336.25 243.5C338.083 247.833 340.083 250.417 342.25 251.25C345.417 251.25 349 249.917 353 247.25C357 244.417 360.917 240.167 364.75 234.5C368.75 228.833 372.333 221.75 375.5 213.25C378.833 204.75 381.25 194.833 382.75 183.5C384.25 172.167 383.833 162.167 381.5 153.5C379.167 144.833 376.083 137.583 372.25 131.75C368.417 125.75 364.5 121.25 360.5 118.25C356.5 115.083 353.5 113.5 351.5 113.5C349.167 113.5 347.083 114.167 345.25 115.5C343.417 116.667 340.833 119.417 337.5 123.75C335.833 126.083 334.333 129.417 333 133.75C331.833 137.583 330.833 142.667 330 149C329.167 155.333 328.917 163.5 329.25 173.5L329.75 191.75ZM597 95.5C602.333 96.3333 607.167 97.0833 611.5 97.75C615.833 98.25 619.583 98.6667 622.75 99C626.417 99.5 629.667 99.9167 632.5 100.25C636 100.75 641.25 100.167 648.25 98.5C655.25 96.6667 662.917 95 671.25 93.5C679.75 91.8333 688.417 90.9167 697.25 90.75C706.083 90.4167 714.167 92 721.5 95.5C728.833 99 734.833 102.5 739.5 106C744.167 109.5 747.833 113.25 750.5 117.25C753.333 121.083 755.333 125.167 756.5 129.5C757.667 133.833 758.333 138.583 758.5 143.75C758.333 151.417 756.5 158.833 753 166C751.5 169 749.5 172.167 747 175.5C744.667 178.667 741.75 181.75 738.25 184.75C734.75 187.75 730.583 190.583 725.75 193.25C721.083 195.917 715.583 198.25 709.25 200.25C715.417 202.083 720.5 204.25 724.5 206.75C728.667 209.25 732 211.583 734.5 213.75C737.5 216.417 739.75 219 741.25 221.5C743.083 225 744.333 228 745 230.5C745.667 233 746.083 235.417 746.25 237.75C746.583 239.917 747 242.167 747.5 244.5C748 246.833 749.083 249.5 750.75 252.5C752.083 254.833 753.667 257.25 755.5 259.75C757.167 261.917 759.083 264.25 761.25 266.75C763.583 269.25 766.417 271.667 769.75 274C765.083 274.167 760.75 274.25 756.75 274.25C752.917 274.25 749.583 274.25 746.75 274.25C743.417 274.25 740.25 274.167 737.25 274C734.25 273.833 730.5 273.75 726 273.75C722.167 273.75 717.25 273.75 711.25 273.75C705.417 273.75 698.333 273.833 690 274C693.667 271.167 696.667 268.333 699 265.5C701.333 262.667 703.167 260.083 704.5 257.75C706 255.083 707.083 252.5 707.75 250C708.583 245.5 708.667 240.833 708 236C707.5 231.833 706.167 227.25 704 222.25C701.833 217.083 698.333 211.917 693.5 206.75C688.667 207.583 684.583 208.25 681.25 208.75C678.083 209.083 675.333 209.417 673 209.75C670.333 210.083 668.167 210.333 666.5 210.5C665 210.667 663.333 210.833 661.5 211C660 211.167 658.333 211.417 656.5 211.75C654.833 211.917 653.25 212.167 651.75 212.5C651.417 219.667 651.417 225.917 651.75 231.25C652.083 236.417 652.5 240.75 653 244.25C653.667 248.417 654.417 252 655.25 255C656.083 258 657.25 260.917 658.75 263.75C659.917 266.083 661.417 268.583 663.25 271.25C665.083 273.75 667.167 275.833 669.5 277.5C665.167 277.5 661 277.5 657 277.5C653.167 277.5 649.667 277.417 646.5 277.25C642.833 277.25 639.333 277.167 636 277C632.667 276.833 628.917 276.75 624.75 276.75C621.25 276.75 617.083 276.75 612.25 276.75C607.583 276.75 602.5 276.833 597 277C601.333 272.5 604.75 268.667 607.25 265.5C609.75 262.333 611.667 259.667 613 257.5C614.5 255.167 615.417 253.167 615.75 251.5C616.083 248.833 616.333 244.083 616.5 237.25C616.833 230.25 617.083 222.25 617.25 213.25C617.417 204.25 617.5 194.833 617.5 185C617.5 175.167 617.417 166 617.25 157.5C617.083 148.833 616.917 141.417 616.75 135.25C616.583 129.083 616.417 125.167 616.25 123.5C615.75 120.5 614.667 117.5 613 114.5C611.667 111.833 609.75 108.833 607.25 105.5C604.75 102.167 601.333 98.8333 597 95.5ZM691.5 183.5C693.167 182.5 694.583 181.5 695.75 180.5C696.917 179.5 697.917 177.917 698.75 175.75C699.583 173.417 700.25 170.167 700.75 166C701.417 161.833 702.167 156.167 703 149C703.667 141.833 703.167 135.917 701.5 131.25C700 126.583 697.917 122.917 695.25 120.25C692.75 117.417 689.917 115.5 686.75 114.5C683.75 113.333 681.083 112.75 678.75 112.75C674.083 112.75 669.5 114.167 665 117C660.5 119.833 657.083 123.667 654.75 128.5C653.917 130.667 653.167 134.25 652.5 139.25C652 143.583 651.667 149.583 651.5 157.25C651.333 164.917 651.583 175 652.25 187.5C658.583 188.5 664.167 188.917 669 188.75C673.833 188.417 677.917 187.833 681.25 187C685.25 186.167 688.667 185 691.5 183.5ZM767.25 105.75C772.917 106.417 777.667 106.917 781.5 107.25C785.5 107.417 788.75 107.667 791.25 108C794.25 108.333 796.583 108.5 798.25 108.5C800.083 108.667 802.833 108.583 806.5 108.25C809.667 107.917 813.917 107.5 819.25 107C824.75 106.5 831.75 105.75 840.25 104.75C836.417 108.083 833.333 111.333 831 114.5C828.833 117.5 827.167 120.167 826 122.5C824.5 125.333 823.583 128 823.25 130.5C822.583 134.5 822 140 821.5 147C821.167 153.833 820.833 161.333 820.5 169.5C820.167 177.667 820 186.083 820 194.75C820 203.417 820.083 211.667 820.25 219.5C820.583 227.167 821.083 234 821.75 240C822.583 246 823.583 250.333 824.75 253C826.417 256 828.167 259 830 262C831.667 264.5 833.667 267.083 836 269.75C838.333 272.417 841 274.583 844 276.25C834.167 275.75 826.333 275.5 820.5 275.5H811.5C808.833 275.5 805.417 275.667 801.25 276C797.75 276.333 793.333 276.667 788 277C782.667 277.333 776.25 277.833 768.75 278.5C772.583 274.333 775.583 270.333 777.75 266.5C779.917 262.667 781.667 259.333 783 256.5C784.5 253.167 785.5 250 786 247C786.667 242.667 787.167 237.333 787.5 231C788 224.5 788.333 217.583 788.5 210.25C788.667 202.75 788.667 195.167 788.5 187.5C788.5 179.667 788.333 172.167 788 165C787.667 157.833 787.167 151.333 786.5 145.5C786 139.667 785.333 135 784.5 131.5C784 129.333 783 126.917 781.5 124.25C780.167 121.917 778.333 119.25 776 116.25C773.833 113.083 770.917 109.583 767.25 105.75Z" fill="white"/>
<g clip-path="url(#clip1_54_2)">
<path d="M533.244 295.194C524.909 272.243 527.021 269.039 527.021 269.039C554.516 259.881 579.058 229.197 584.355 197.72C591.4 155.907 550.61 119.979 566.671 66.2974C570.413 53.7604 473.612 111.992 459.493 175.966C449.18 222.732 477.896 255.825 487.972 263.745C497.106 270.918 508.118 273.449 508.118 273.449C512.273 293.199 517.1 301.501 517.1 301.501C519.618 307.851 536.064 302.884 533.244 295.194ZM510.607 257.138C496.317 192.605 529.284 120.556 529.284 120.556C529.284 120.556 507.442 179.979 522.185 256.044C519.077 257.842 513.524 258.325 510.607 257.138Z" fill="white"/>
</g>
</g>
<defs>
<clipPath id="clip0_54_2">
<rect width="846" height="314" fill="white"/>
</clipPath>
<clipPath id="clip1_54_2">
<rect width="282.418" height="270.217" fill="white" transform="translate(588.949) rotate(61.7134)"/>
</clipPath>
</defs>
</svg>
