<svg width="201" height="194" viewBox="0 0 201 194" fill="none" xmlns="http://www.w3.org/2000/svg">
<g clip-path="url(#clip0_1_2)">
<rect width="200.316" height="192.758" transform="translate(0.418121 0.518402) rotate(-0.0791439)" fill="white"/>
<rect x="0.415344" y="-1.4816" width="200" height="200" transform="rotate(-0.0791439 0.415344 -1.4816)" fill="#FF7B01"/>
<path d="M143.026 28.9523L143.338 120.427C143.346 126.735 142.241 132.643 140.022 138.151C137.803 143.658 134.748 148.456 130.858 152.543C126.967 156.693 122.333 159.977 116.955 162.397C111.578 164.754 105.673 165.938 99.2403 165.946C92.6843 165.956 86.7143 164.789 81.3302 162.446C75.9461 160.103 71.3338 156.862 67.4935 152.724C63.6532 148.647 60.6469 143.858 58.4746 138.356C56.3022 132.793 55.1807 126.857 55.1101 120.548L55.1693 29.0736L71.4974 29.0511L71.9949 120.525C72.0623 124.545 72.6861 128.41 73.8664 132.119C75.1085 135.828 76.8757 139.104 79.168 141.946C81.3985 144.788 84.1849 147.072 87.5271 148.8C90.9312 150.527 94.8289 151.387 99.2202 151.381C103.611 151.375 107.476 150.535 110.813 148.86C114.151 147.124 116.962 144.801 119.246 141.891C121.469 139.042 123.165 135.762 124.335 132.049C125.505 128.337 126.149 124.47 126.267 120.45L126.419 28.9752L143.026 28.9523Z" fill="white"/>
</g>
<defs>
<clipPath id="clip0_1_2">
<rect width="200.316" height="192.758" fill="white" transform="translate(0.418121 0.518402) rotate(-0.0791439)"/>
</clipPath>
</defs>
</svg>
